<?xml version="1.0" encoding="UTF-8"?>
<svg version="1.1" xmlns="http://www.w3.org/2000/svg" width="1280" height="731">
<defs>
  <linearGradient id="goldGrad" x1="0" y1="0" x2="0" y2="731" gradientUnits="userSpaceOnUse">
    <stop offset="0%" stop-color="#FDE68A"/>
    <stop offset="35%" stop-color="#FBBF24"/>
    <stop offset="65%" stop-color="#D97706"/>
    <stop offset="100%" stop-color="#92400E"/>
  </linearGradient>
</defs>
<!-- Background removed for transparency on dark UI -->
<path d="M0 0 C0.99 0 1.98 0 3 0 C3.37769531 0.80179688 3.75539063 1.60359375 4.14453125 2.4296875 C7.69461117 9.76263946 11.55994334 16.79839594 15.8125 23.75 C16.29243408 24.53616699 16.77236816 25.32233398 17.2668457 26.13232422 C19.82342225 30.30478649 19.82342225 30.30478649 23 34 C23.79274067 35.81526123 24.5357406 37.65244902 25.25 39.5 C27.24204073 44.38744878 29.51144017 48.76580843 32.30078125 53.234375 C34.27063749 56.44048584 36.10771028 59.71298515 37.9375 63 C42.76447824 71.64264046 47.72189453 80.2095346 52.68334961 88.77539062 C55.79344238 94.15051754 58.8667676 99.54015433 61.86523438 104.97827148 C62.96724732 106.94164695 64.10933638 108.87368777 65.2734375 110.80078125 C65.62277344 111.38537109 65.97210937 111.96996094 66.33203125 112.57226562 C67.04216857 113.75715767 67.76130705 114.93669087 68.48828125 116.11132812 C71.01665358 120.39047903 71.01665358 120.39047903 70.94140625 123.14453125 C69.74064687 125.51117317 68.28091467 127.34886117 66.5625 129.375 C62.16880346 134.70453805 58.17972544 140.25998619 54.19921875 145.8984375 C53.47347656 146.92195312 52.74773437 147.94546875 52 149 C51.44957031 149.79664063 50.89914062 150.59328125 50.33203125 151.4140625 C49.89246094 151.93742188 49.45289063 152.46078125 49 153 C48.34 153 47.68 153 47 153 C46.40574219 151.92105469 45.81148437 150.84210938 45.19921875 149.73046875 C37.02297699 134.92574428 28.69208406 120.20488371 19.81616211 105.8059082 C18.39127188 103.46815059 17.08335396 101.21839464 16.10546875 98.65625 C13.99279682 93.57986514 10.75654317 89.04747663 7.8125 84.41796875 C7.32523438 83.63808594 6.83796875 82.85820312 6.3359375 82.0546875 C5.88782715 81.34812012 5.4397168 80.64155273 4.97802734 79.91357422 C4 78 4 78 4 75 C2.03341966 75.19128797 2.03341966 75.19128797 0 76 C-1.01211544 77.73631003 -1.01211544 77.73631003 -1.625 80 C-3.48267676 85.11958163 -5.96061126 89.59823962 -8.75 94.25 C-9.18965088 94.98404053 -9.62930176 95.71808105 -10.08227539 96.47436523 C-10.96829852 97.95020673 -11.85541358 99.42539327 -12.74365234 100.89990234 C-15.55910667 105.60618648 -18.25107071 110.38378941 -20.95410156 115.15527344 C-21.70202589 116.47444155 -22.45155631 117.79269958 -23.20214844 119.11035156 C-24.45003591 121.30117339 -25.6941897 123.49407795 -26.9375 125.6875 C-27.52253296 126.71339233 -27.52253296 126.71339233 -28.11938477 127.76000977 C-29.65818896 130.48403957 -31.00793062 133.02379186 -32 136 C-32.66 136 -33.32 136 -34 136 C-34.144375 136.78375 -34.28875 137.5675 -34.4375 138.375 C-35 141 -35 141 -36 143 C-36.66 143 -37.32 143 -38 143 C-38.144375 143.763125 -38.28875 144.52625 -38.4375 145.3125 C-39 148 -39 148 -40 151 C-39.13375 151.27199219 -38.2675 151.54398438 -37.375 151.82421875 C-34.11221155 152.96090778 -31.10864656 154.30972315 -28 155.8125 C-23.45649075 157.94789789 -18.94366131 159.77149419 -14.1875 161.375 C-6.70213411 163.959035 0.15538628 167.46311435 7.17822266 171.07617188 C13.72780088 174.39748037 20.47290277 177.26622758 27.3203125 179.91015625 C30.38107199 181.15498409 33.39189221 182.49409385 36.40820312 183.8425293 C59.65076206 194.29883901 59.65076206 194.29883901 83.1875 204.0625 C87.69179455 205.840511 92.08484497 207.82608449 96.484375 209.84765625 C102.56535868 212.63320002 108.76037706 215.15590112 114.9375 217.71875 C115.948125 218.1415625 116.95875 218.564375 118 219 C119.155 219.350625 120.31 219.70125 121.5 220.0625 C126.51284811 222.24462796 128.48145533 226.89819973 131 231.5 C131.54615967 232.45962646 132.09231934 233.41925293 132.6550293 234.40795898 C134.45939366 237.59313397 136.23176769 240.79463865 138 244 C139.29773985 246.33488013 140.59588719 248.66952937 141.89453125 251.00390625 C143.81385465 254.45438525 145.7276255 257.90740032 147.62304688 261.37109375 C151.28024245 268.03227026 155.11483237 274.52893845 159.16088867 280.95800781 C167 293.92433294 167 293.92433294 167 298 C57.77 298 -51.46 298 -164 298 C-163.20133162 294.80532646 -162.55242836 292.92696253 -160.99609375 290.1640625 C-160.58979736 289.43767578 -160.18350098 288.71128906 -159.76489258 287.96289062 C-159.32685303 287.19138672 -158.88881348 286.41988281 -158.4375 285.625 C-157.98205811 284.81482422 -157.52661621 284.00464844 -157.05737305 283.16992188 C-155.71005499 280.77699813 -154.35610757 278.38795106 -153 276 C-152.05253906 274.32550781 -152.05253906 274.32550781 -151.0859375 272.6171875 C-147.9101933 267.03515254 -144.69723611 261.47478366 -141.484375 255.9140625 C-133.33659271 241.83607877 -133.33659271 241.83607877 -125.3125 227.6875 C-124.97589355 227.0901001 -124.63928711 226.4927002 -124.29248047 225.87719727 C-122.14632745 222.0644587 -120.03263535 218.23519189 -117.9296875 214.3984375 C-116.8493164 212.45292612 -115.76858971 210.50761215 -114.6875 208.5625 C-114.18323486 207.63074951 -113.67896973 206.69899902 -113.15942383 205.73901367 C-112.43662231 204.4470105 -112.43662231 204.4470105 -111.69921875 203.12890625 C-111.27471436 202.35619385 -110.85020996 201.58348145 -110.4128418 200.78735352 C-109 199 -109 199 -106.97314453 198.20874023 C-97.48981078 197.20549223 -83.3620901 206.7665609 -75 211 C-75.58236353 214.63635823 -76.5594418 217.41396032 -78.3359375 220.6328125 C-78.81812744 221.51259766 -79.30031738 222.39238281 -79.79711914 223.29882812 C-80.31781982 224.23146484 -80.83852051 225.16410156 -81.375 226.125 C-82.17442017 227.57422852 -82.17442017 227.57422852 -82.98999023 229.05273438 C-87.04261974 236.3674406 -91.19662282 243.62280183 -95.43310547 250.83251953 C-96.07143311 251.92089111 -96.07143311 251.92089111 -96.72265625 253.03125 C-97.09140869 253.65580078 -97.46016113 254.28035156 -97.84008789 254.92382812 C-99.31701109 257.5674305 -100.64575219 260.29150438 -102 263 C-33.36 263 35.28 263 106 263 C101.7019155 253.14360917 101.7019155 253.14360917 94.08203125 247.23046875 C93.25477539 246.9058667 92.42751953 246.58126465 91.57519531 246.24682617 C90.66350586 245.89724854 89.75181641 245.5476709 88.8125 245.1875 C77.63490253 240.77115667 66.71195632 235.87552058 55.78833008 230.8737793 C49.59911744 228.04495262 43.40462566 225.29985096 37.06591797 222.82104492 C34.38729421 221.75649615 31.78927326 220.55197138 29.1875 219.3125 C22.36635861 216.12118028 15.45026952 213.17068923 8.51049805 210.24731445 C3.23329358 208.01050333 -1.89374868 205.6035163 -7 203 C-11.25742994 201.07998258 -15.56907919 199.40160737 -19.9375 197.75 C-29.84063347 193.96652438 -39.4986728 189.62136538 -49.125 185.1875 C-52.69303196 183.55147931 -56.22979109 182.12087292 -60 181 C-60 180.34 -60 179.68 -60 179 C-60.92039062 178.93554688 -61.84078125 178.87109375 -62.7890625 178.8046875 C-68.36880996 178.00356507 -73.29954691 175.46700646 -78.375 173.125 C-79.38433594 172.67769531 -80.39367187 172.23039063 -81.43359375 171.76953125 C-82.39136719 171.33253906 -83.34914063 170.89554688 -84.3359375 170.4453125 C-85.20782715 170.04844238 -86.0797168 169.65157227 -86.97802734 169.24267578 C-89 168 -89 168 -90 165 C-88.88055741 162.36427539 -87.70609917 159.90037805 -86.375 157.375 C-86.00761719 156.66021484 -85.64023437 155.94542969 -85.26171875 155.20898438 C-82.6124289 150.08237613 -79.88718274 144.99704704 -77 140 C-76.34 140 -75.68 140 -75 140 C-74.92910156 139.35675781 -74.85820313 138.71351563 -74.78515625 138.05078125 C-73.67214229 133.72608523 -71.5730475 130.0890439 -69.4375 126.1875 C-69.01275391 125.39923828 -68.58800781 124.61097656 -68.15039062 123.79882812 C-67.10603446 121.8626622 -66.0557923 119.92994633 -65 118 C-64.34 118 -63.68 118 -63 118 C-62.88825439 117.27925293 -62.77650879 116.55850586 -62.66137695 115.81591797 C-61.95882462 112.82468925 -60.90580442 110.62742897 -59.41796875 107.9453125 C-58.89783203 107.00042969 -58.37769531 106.05554688 -57.84179688 105.08203125 C-57.29587891 104.10621094 -56.74996094 103.13039063 -56.1875 102.125 C-55.65318359 101.15691406 -55.11886719 100.18882812 -54.56835938 99.19140625 C-51.75432047 94.10329162 -48.89910042 89.04008257 -46 84 C-45.34 84 -44.68 84 -44 84 C-43.92910156 83.35933594 -43.85820313 82.71867187 -43.78515625 82.05859375 C-42.66533046 77.69628731 -40.57032774 74.01062555 -38.4375 70.0625 C-37.9842334 69.21276611 -37.5309668 68.36303223 -37.06396484 67.48754883 C-33.87895103 61.54715638 -30.57323098 55.68819033 -27.1953125 49.85546875 C-23.83426409 44.00446209 -20.65564782 38.05126656 -17.43774414 32.12084961 C-14.54109055 26.79319941 -11.60044308 21.49829836 -8.5625 16.25 C-5.49277961 10.93086029 -2.65404973 5.53777684 0 0 Z " fill="url(#goldGrad)" transform="translate(630,206)"/>
<path d="M0 0 C0.99 0 1.98 0 3 0 C3.33 1.65 3.66 3.3 4 5 C3.01 5 2.02 5 1 5 C-0.50831231 6.69225676 -0.50831231 6.69225676 -1.75 8.875 C-2.19859375 9.59429687 -2.6471875 10.31359375 -3.109375 11.0546875 C-3.40328125 11.69664062 -3.6971875 12.33859375 -4 13 C-3.67 13.66 -3.34 14.32 -3 15 C-3.99 15.495 -3.99 15.495 -5 16 C-5.72159424 17.64363134 -6.39351421 19.31050386 -7 21 C-7.66 21 -8.32 21 -9 21 C-9.28875 21.639375 -9.5775 22.27875 -9.875 22.9375 C-11 25 -11 25 -13 26 C-11.66188443 22.51270698 -10.14103268 19.22079449 -8.3984375 15.91796875 C-7.90859375 14.98662109 -7.41875 14.05527344 -6.9140625 13.09570312 C-6.40617188 12.13599609 -5.89828125 11.17628906 -5.375 10.1875 C-4.859375 9.20845703 -4.34375 8.22941406 -3.8125 7.22070312 C-2.5438591 4.81263475 -1.27296034 2.405787 0 0 Z " fill="url(#goldGrad)" transform="translate(630,206)"/>
<path d="M0 0 C0.33 0.99 0.66 1.98 1 3 C0.14834367 4.63518015 -0.72420816 6.26242605 -1.69140625 7.83203125 C-3.77273719 11.28020639 -5.57835785 14.87744293 -7.4375 18.44921875 C-9.03030436 21.04947186 -10.76350158 22.94184305 -13 25 C-11.42407398 19.42572455 -8.77505 14.6923442 -5.9375 9.6875 C-5.47794922 8.86443359 -5.01839844 8.04136719 -4.54492188 7.19335938 C-1.15472274 1.15472274 -1.15472274 1.15472274 0 0 Z " fill="url(#goldGrad)" transform="translate(601,260)"/>
<path d="M0 0 C0.66 0.66 1.32 1.32 2 2 C1.505 2.7425 1.01 3.485 0.5 4.25 C-1.31923475 7.06318188 -1.31923475 7.06318188 -1 11 C-1.60585938 11.22558594 -2.21171875 11.45117188 -2.8359375 11.68359375 C-5.65226769 13.39677656 -6.29361886 15.07762939 -7.625 18.0625 C-9.80555556 22.90277778 -9.80555556 22.90277778 -12 24 C-10.42195846 18.39523177 -7.73583615 13.64949374 -4.875 8.625 C-4.17310547 7.37783203 -4.17310547 7.37783203 -3.45703125 6.10546875 C-2.30929451 4.06765046 -1.15686718 2.03264431 0 0 Z " fill="url(#goldGrad)" transform="translate(616,232)"/>
<path d="M0 0 C4.06326215 1.35442072 4.52542787 3.23733227 6.5625 6.9375 C8.89717076 11.25812569 8.89717076 11.25812569 12 15 C12.625 17.625 12.625 17.625 13 20 C11.5 18.625 11.5 18.625 10 17 C10 16.34 10 15.68 10 15 C9.34 15 8.68 15 8 15 C6.68 12.36 5.36 9.72 4 7 C3.01 7 2.02 7 1 7 C0.67 4.69 0.34 2.38 0 0 Z " fill="url(#goldGrad)" transform="translate(641,225)"/>
<path d="M0 0 C1.32 0.66 2.64 1.32 4 2 C4 2.66 4 3.32 4 4 C2.25 5.5078125 2.25 5.5078125 0 7.125 C-0.7425 7.66382813 -1.485 8.20265625 -2.25 8.7578125 C-2.8275 9.16773438 -3.405 9.57765625 -4 10 C-3.43454163 6.04179141 -2.19097652 3.3340947 0 0 Z " fill="url(#goldGrad)" transform="translate(499,444)"/>
<path d="M0 0 C1.46841427 2.93682854 0.76696084 4.86824322 0 8 C-1.375 9.6875 -1.375 9.6875 -3 11 C-3.556875 11.556875 -4.11375 12.11375 -4.6875 12.6875 C-5.120625 13.120625 -5.55375 13.55375 -6 14 C-6 10.27792613 -4.82035432 8.53604411 -3 5.3125 C-2.443125 4.31863281 -1.88625 3.32476562 -1.3125 2.30078125 C-0.879375 1.54152344 -0.44625 0.78226562 0 0 Z " fill="url(#goldGrad)" transform="translate(549,354)"/>
<path d="M0 0 C1.32 0.33 2.64 0.66 4 1 C3.01 1.495 3.01 1.495 2 2 C1.27840576 3.64363134 0.60648579 5.31050386 0 7 C-0.66 7 -1.32 7 -2 7 C-2.28875 7.639375 -2.5775 8.27875 -2.875 8.9375 C-4 11 -4 11 -6 12 C-4.43358249 7.69235185 -2.31663844 3.93828536 0 0 Z " fill="url(#goldGrad)" transform="translate(623,220)"/>
<path d="M0 0 C0.66 0.66 1.32 1.32 2 2 C1.2575 3.11375 1.2575 3.11375 0.5 4.25 C-1.31923475 7.06318188 -1.31923475 7.06318188 -1 11 C-1.99 11 -2.98 11 -4 11 C-3.48964169 6.6109185 -2.47785723 3.66291938 0 0 Z " fill="url(#goldGrad)" transform="translate(616,232)"/>
<path d="M0 0 C0.99 0.99 1.98 1.98 3 3 C1.35 4.65 -0.3 6.3 -2 8 C-2.33 7.34 -2.66 6.68 -3 6 C-2.06553465 3.96855359 -1.06775224 1.96466413 0 0 Z " fill="url(#goldGrad)" transform="translate(563,328)"/>
<path d="M0 0 C0.66 0 1.32 0 2 0 C2 0.99 2 1.98 2 3 C2.66 3.33 3.32 3.66 4 4 C3.34 4 2.68 4 2 4 C2 4.66 2 5.32 2 6 C1.01 6 0.02 6 -1 6 C-1.042721 4.33388095 -1.04063832 2.66617115 -1 1 C-0.67 0.67 -0.34 0.34 0 0 Z " fill="url(#goldGrad)" transform="translate(487,465)"/>
<path d="M0 0 C0.99 0.33 1.98 0.66 3 1 C0.525 4.465 0.525 4.465 -2 8 C-2.33 7.34 -2.66 6.68 -3 6 C-2.06553465 3.96855359 -1.06775224 1.96466413 0 0 Z " fill="url(#goldGrad)" transform="translate(591,277)"/>
</svg>
