<?xml version="1.0" encoding="UTF-8"?>
<svg version="1.1" xmlns="http://www.w3.org/2000/svg" width="207" height="243">
<defs>
  <linearGradient id="ultronGold" x1="0" y1="0" x2="0" y2="243" gradientUnits="userSpaceOnUse">
    <stop offset="0%" stop-color="#FDE68A"/>
    <stop offset="35%" stop-color="#FBBF24"/>
    <stop offset="65%" stop-color="#D97706"/>
    <stop offset="100%" stop-color="#92400E"/>
  </linearGradient>
</defs>
<path d="M0 0 C2.06565228 0.00096741 4.12751255 -0.04067158 6.19262695 -0.08496094 C22.39347222 -0.23035793 37.72189625 5.28602165 49.89770508 16.25097656 C57.89783289 24.83202652 59.67506354 38.27033332 59.70629883 49.58691406 C59.73141998 51.27572018 59.75681845 52.96452218 59.7824707 54.65332031 C59.81136087 57.28010302 59.83542321 59.90681515 59.85400391 62.53369141 C59.87558406 65.09342983 59.91496497 67.65242978 59.95629883 70.21191406 C59.95647255 71.39314346 59.95647255 71.39314346 59.95664978 72.59823608 C59.93698651 76.76392101 59.93698651 76.76392101 61.88232422 80.28857422 C62.3823999 80.68866699 62.88247559 81.08875977 63.39770508 81.50097656 C64.08520508 85.18847656 64.08520508 85.18847656 64.39770508 88.50097656 C65.05770508 88.50097656 65.71770508 88.50097656 66.39770508 88.50097656 C66.47118164 86.6021875 66.47118164 86.6021875 66.54614258 84.66503906 C67.26204437 66.92952275 68.3195615 49.21737087 69.39770508 31.50097656 C70.38770508 31.50097656 71.37770508 31.50097656 72.39770508 31.50097656 C73.17305634 43.54661226 73.52511951 55.58388035 73.57495117 67.65264893 C73.58168587 69.11291517 73.59183243 70.57317043 73.60571289 72.03338623 C73.72570834 85.75273453 72.57810743 98.95843851 68.64770508 112.18847656 C68.25736084 113.52555664 68.25736084 113.52555664 67.85913086 114.88964844 C61.40592181 136.2065552 61.40592181 136.2065552 53.53833008 140.52050781 C52.91442383 140.7821875 52.29051758 141.04386719 51.64770508 141.31347656 C46.50038774 144.31607834 44.8185204 149.07775132 42.39868164 154.26928711 C36.53993091 166.78272129 29.36245915 175.30240404 16.47192383 180.48925781 C14.08348819 181.51947571 14.08348819 181.51947571 11.58520508 184.25097656 C7.34356574 187.24507492 4.18199269 187.02081845 -0.89526367 186.96972656 C-3.87558428 186.45365373 -4.86449259 185.93748293 -6.60229492 183.50097656 C-6.60229492 182.84097656 -6.60229492 182.18097656 -6.60229492 181.50097656 C-7.71604492 181.31535156 -8.82979492 181.12972656 -9.97729492 180.93847656 C-19.91314117 178.42374026 -28.026486 170.45754024 -33.18896484 161.85791016 C-35.24565505 158.03297813 -37.20700636 154.16535056 -39.15112305 150.28222656 C-42.00163945 144.79844731 -44.08220335 141.61604898 -49.60229492 138.50097656 C-51.36010742 136.42285156 -51.36010742 136.42285156 -52.72729492 134.25097656 C-53.18362305 133.54457031 -53.63995117 132.83816406 -54.11010742 132.11035156 C-57.97990562 125.3432699 -60.50405395 119.06268414 -62.22729492 111.43847656 C-62.4309668 110.59865234 -62.63463867 109.75882812 -62.84448242 108.89355469 C-66.3639636 93.78911463 -66.8960508 79.14624585 -66.80810547 63.70898438 C-66.78964071 60.34790588 -66.78759781 56.98710094 -66.7878418 53.62597656 C-66.78293257 51.47753668 -66.77710688 49.32909865 -66.77026367 47.18066406 C-66.76915085 46.18171112 -66.76803802 45.18275818 -66.76689148 44.15353394 C-66.76051163 43.22131012 -66.75413177 42.2890863 -66.74755859 41.32861328 C-66.7437468 40.51447968 -66.739935 39.70034607 -66.73600769 38.86154175 C-66.59273336 36.33217667 -66.15387199 33.97085819 -65.60229492 31.50097656 C-64.61229492 31.50097656 -63.62229492 31.50097656 -62.60229492 31.50097656 C-60.42091639 71.54689518 -60.42091639 71.54689518 -59.60229492 88.50097656 C-58.94229492 88.50097656 -58.28229492 88.50097656 -57.60229492 88.50097656 C-57.38573242 86.83035156 -57.38573242 86.83035156 -57.16479492 85.12597656 C-56.60229492 81.50097656 -56.60229492 81.50097656 -55.60229492 79.50097656 C-54.94229492 79.50097656 -54.28229492 79.50097656 -53.60229492 79.50097656 C-53.61276855 78.45345215 -53.62324219 77.40592773 -53.6340332 76.32666016 C-53.67073676 72.37178074 -53.69337495 68.41691576 -53.7121582 64.46191406 C-53.72210278 62.76299493 -53.73566323 61.06409237 -53.75317383 59.36523438 C-54.07408723 27.38715734 -54.07408723 27.38715734 -43.78979492 16.00097656 C-39.9173878 12.30749254 -35.84321059 9.65006821 -31.16479492 7.12597656 C-30.56884521 6.80435547 -29.97289551 6.48273437 -29.35888672 6.15136719 C-19.77048632 1.27140658 -10.69812177 -0.03514577 0 0 Z " fill="url(#ultronGold)" transform="translate(97.602294921875,20.4990234375)"/>
<path d="M0 0 C1 3 1 3 0.14453125 4.9375 C-0.29503906 5.618125 -0.73460937 6.29875 -1.1875 7 C-1.61417969 7.680625 -2.04085937 8.36125 -2.48046875 9.0625 C-5.43492613 12.82962303 -8.83610463 14.50325045 -13.25 16.1875 C-14.14203125 16.53167969 -15.0340625 16.87585938 -15.953125 17.23046875 C-16.62859375 17.48441406 -17.3040625 17.73835938 -18 18 C-17.40832031 17.86980469 -16.81664062 17.73960937 -16.20703125 17.60546875 C-13.73150222 17.17336172 -11.51364658 16.89052795 -9 17 C-6.19334613 19.16346236 -4.575966 20.84806801 -3 24 C-1.77161769 36.74007936 -5.02822512 46.64582542 -12.328125 57.03125 C-15.11999314 60.31887043 -18.39081292 62.67821367 -22 65 C-22.94875 65.61875 -23.8975 66.2375 -24.875 66.875 C-27 68 -27 68 -29 68 C-34.74031891 57.62642369 -34.74031891 57.62642369 -34 52 C-36.43717258 52.27034634 -36.43717258 52.27034634 -39 53 C-39.66 53.99 -40.32 54.98 -41 56 C-43.3828125 56.29296875 -43.3828125 56.29296875 -46.125 56.1875 C-47.03507812 56.16042969 -47.94515625 56.13335937 -48.8828125 56.10546875 C-49.58148438 56.07066406 -50.28015625 56.03585938 -51 56 C-51.495 54.02 -51.495 54.02 -52 52 C-53.65 52 -55.3 52 -57 52 C-57.0928125 53.7325 -57.0928125 53.7325 -57.1875 55.5 C-57.77618982 60.49494394 -60.10663093 63.98558388 -63 68 C-75.08064097 62.23275006 -81.38686163 55.1304064 -87 43 C-88.33921661 39.16200119 -88.29373356 35.15138269 -88.375 31.125 C-88.41238281 30.43019531 -88.44976562 29.73539063 -88.48828125 29.01953125 C-88.55477458 25.09642486 -88.06283129 22.56111912 -85.66796875 19.51953125 C-83 17 -83 17 -79.9375 16.5625 C-77.55603745 16.91718591 -75.32393588 17.3952769 -73 18 C-74.21236328 17.56300781 -74.21236328 17.56300781 -75.44921875 17.1171875 C-81.87836263 14.65100203 -86.20062383 12.83475626 -90 7 C-89.67 6.34 -89.34 5.68 -89 5 C-88.54625 5.7425 -88.0925 6.485 -87.625 7.25 C-84.96212882 10.03967457 -83.87742777 10.56049623 -80.375 11.75 C-72.65810619 14.53951421 -66.69118185 20.36295815 -62 27 C-62.33 27.66 -62.66 28.32 -63 29 C-61.97180184 31.39912903 -60.65963268 33.60218833 -59.375 35.875 C-57.90855777 39.20782325 -57.74315814 41.40421401 -58 45 C-55.69 45 -53.38 45 -51 45 C-51 43.35 -51 41.7 -51 40 C-49.01432292 40.26041667 -47.02864583 40.52083333 -45.04296875 40.78125 C-42.84528294 41.053233 -42.84528294 41.053233 -40 41 C-40 42.32 -40 43.64 -40 45 C-38.02 45 -36.04 45 -34 45 C-33.87882812 44.443125 -33.75765625 43.88625 -33.6328125 43.3125 C-33.27909121 41.70170768 -32.91218578 40.09377786 -32.53515625 38.48828125 C-31.91387966 35.79614204 -31.91387966 35.79614204 -31.5625 32.1875 C-30.49353398 27.90301523 -27.71050851 24.9496924 -24.8125 21.75 C-24.12619507 20.98852661 -24.12619507 20.98852661 -23.42602539 20.21166992 C-19.06665058 15.63285079 -14.43042496 12.79617369 -8.375 10.8125 C-3.66379387 8.28240782 -2.16199932 4.75241324 0 0 Z " fill="#F1F1F1" transform="translate(146,118)"/>
<path d="M0 0 C4.21578802 1.3739714 8.42098054 2.77796956 12.625 4.1875 C13.81480469 4.57486328 15.00460938 4.96222656 16.23046875 5.36132812 C22.40316484 7.44763044 27.50514053 9.17248848 32 14 C32 14.66 32 15.32 32 16 C32.99 16.33 33.98 16.66 35 17 C35 25.91 35 34.82 35 44 C33 42 33 42 32.77294922 39.75341797 C32.78342285 38.84221191 32.79389648 37.93100586 32.8046875 36.9921875 C32.81113281 36.00605469 32.81757812 35.01992187 32.82421875 34.00390625 C32.84097656 32.97136719 32.85773438 31.93882812 32.875 30.875 C32.88402344 29.83472656 32.89304688 28.79445312 32.90234375 27.72265625 C32.92596253 25.14820908 32.95889851 22.57421788 33 20 C26.69551019 17.80771447 20.45222812 16.12789053 13.91796875 14.74609375 C9.43633679 13.60018785 6.91306656 12.38449367 4.25 8.5625 C3.82203125 7.96566406 3.3940625 7.36882812 2.953125 6.75390625 C2 5 2 5 2 2 C1.34 2 0.68 2 0 2 C0 1.34 0 0.68 0 0 Z " fill="#EDEDEC" transform="translate(56,103)"/>
<path d="M0 0 C-2.8459245 5.58239037 -5.86654754 10.49317773 -12.03125 12.74047852 C-14.24120462 13.30366853 -16.44598011 13.7678194 -18.6875 14.1875 C-24.62741787 15.30601438 -24.62741787 15.30601438 -30 18 C-30.99 18 -31.98 18 -33 18 C-33 23.61 -33 29.22 -33 35 C-33.33 35 -33.66 35 -34 35 C-34.23514272 31.83461717 -34.37527804 28.67150115 -34.5 25.5 C-34.56703125 24.613125 -34.6340625 23.72625 -34.703125 22.8125 C-34.85506113 17.64667151 -34.24899051 14.53493546 -30.7421875 10.62890625 C-25.68110424 6.19961675 -19.98366084 4.33589392 -13.625 2.4375 C-12.53316406 2.08365234 -11.44132812 1.72980469 -10.31640625 1.36523438 C-2.31577698 -1.15788849 -2.31577698 -1.15788849 0 0 Z " fill="#E9E9E8" transform="translate(144,105)"/>
<path d="M0 0 C4.21578802 1.3739714 8.42098054 2.77796956 12.625 4.1875 C13.81480469 4.57486328 15.00460938 4.96222656 16.23046875 5.36132812 C22.40316484 7.44763044 27.50514053 9.17248848 32 14 C32 14.66 32 15.32 32 16 C32.99 16.33 33.98 16.66 35 17 C35 25.91 35 34.82 35 44 C33 42 33 42 32.77294922 39.75341797 C32.78342285 38.84221191 32.79389648 37.93100586 32.8046875 36.9921875 C32.81113281 36.00605469 32.81757812 35.01992187 32.82421875 34.00390625 C32.84097656 32.97136719 32.85773438 31.93882812 32.875 30.875 C32.88402344 29.83472656 32.89304688 28.79445312 32.90234375 27.72265625 C32.92596253 25.14820908 32.95889851 22.57421788 33 20 C32.34 19.67 31.68 19.34 31 19 C30.13047326 17.89573139 29.28016528 16.77625362 28.44140625 15.6484375 C24.87272608 11.40934366 21.16179067 10.10785855 15.9375 8.625 C15.14794922 8.37878906 14.35839844 8.13257812 13.54492188 7.87890625 C9.72932407 6.7083205 5.93764106 5.68136244 2 5 C2 4.01 2 3.02 2 2 C1.34 2 0.68 2 0 2 C0 1.34 0 0.68 0 0 Z " fill="#8E8E89" transform="translate(56,103)"/>
<path d="M0 0 C-2.23327612 3.34991418 -3.20674366 3.53316732 -6.94140625 4.47265625 C-10.69755993 5.43485881 -14.34356566 6.71635816 -18 8 C-19.2375 8.433125 -20.475 8.86625 -21.75 9.3125 C-25.71578008 11.37165504 -27.26982568 13.51144392 -30 17 C-30.99 17.33 -31.98 17.66 -33 18 C-33 23.61 -33 29.22 -33 35 C-33.33 35 -33.66 35 -34 35 C-34.23514272 31.83461717 -34.37527804 28.67150115 -34.5 25.5 C-34.56703125 24.613125 -34.6340625 23.72625 -34.703125 22.8125 C-34.85506113 17.64667151 -34.24899051 14.53493546 -30.7421875 10.62890625 C-25.68110424 6.19961675 -19.98366084 4.33589392 -13.625 2.4375 C-12.53316406 2.08365234 -11.44132812 1.72980469 -10.31640625 1.36523438 C-2.31577698 -1.15788849 -2.31577698 -1.15788849 0 0 Z " fill="#9A9A96" transform="translate(144,105)"/>
<path d="M0 0 C2.04505757 5.0873963 -0.72208153 9.73618018 -2.52734375 14.55859375 C-4.27443025 18.64130784 -6.07172549 21.67601272 -9 25 C-9.66 25 -10.32 25 -11 25 C-10.4372094 22.03636867 -9.8510457 19.08088893 -9.25 16.125 C-9.09273437 15.28324219 -8.93546875 14.44148437 -8.7734375 13.57421875 C-8.60585937 12.76855469 -8.43828125 11.96289062 -8.265625 11.1328125 C-8.11899414 10.38918457 -7.97236328 9.64555664 -7.82128906 8.87939453 C-6.72884222 6.37949684 -5.43554443 6.08656444 -3 5 C-1.24677063 2.46811352 -1.24677063 2.46811352 0 0 Z " fill="#D6D6D4" transform="translate(159,134)"/>
<path d="M0 0 C1 3 1 3 0.14453125 4.9375 C-0.29503906 5.618125 -0.73460937 6.29875 -1.1875 7 C-1.61417969 7.680625 -2.04085937 8.36125 -2.48046875 9.0625 C-6.06421071 13.63200132 -10.53258173 15.06708582 -15.85546875 16.9375 C-16.56316406 17.288125 -17.27085937 17.63875 -18 18 C-18.33 18.99 -18.66 19.98 -19 21 C-20.66666667 22.66666667 -22.33333333 24.33333333 -24 26 C-25.75186307 28.28359387 -27.3703693 30.62539526 -29 33 C-29.66 32.67 -30.32 32.34 -31 32 C-28.19730002 23.73941058 -21.35447213 17.23253258 -13.91015625 12.92578125 C-12 12 -12 12 -8.3125 10.75 C-3.62939762 8.27590818 -2.14030307 4.7047215 0 0 Z " fill="#AAAAA6" transform="translate(146,118)"/>
<path d="M0 0 C2.74526635 1.37263317 3.44355648 3.40592747 5 6 C5.66 6.33 6.32 6.66 7 7 C7.5625 9.51171875 7.5625 9.51171875 8 12.6875 C8.6452289 16.98390516 9.41764224 20.93108005 11 25 C5.9316722 20.7763935 4.14192886 16.14940865 2 10 C1.5875 8.88625 1.175 7.7725 0.75 6.625 C0 4 0 4 0 0 Z " fill="#DCDCDB" transform="translate(42,134)"/>
<path d="M0 0 C0.40089844 0.38671875 0.80179688 0.7734375 1.21484375 1.171875 C4.45057342 4.13612621 7.34295368 6.30963349 11.4375 7.9375 C18.41413767 10.79482601 23.60128388 15.95176534 28 22 C27.67 22.66 27.34 23.32 27 24 C21.33876221 19.62540717 21.33876221 19.62540717 19.375 16 C16.16504905 11.94532511 12.61639135 11.0862667 7.86328125 9.29296875 C3.8985348 7.50261258 2.27513192 5.65646201 0 2 C0 1.34 0 0.68 0 0 Z " fill="#BDBDBA" transform="translate(56,123)"/>
<path d="M0 0 C-1.53529836 3.13304954 -2.50658957 4.73753204 -5.62890625 6.3984375 C-7.08103516 6.88183594 -7.08103516 6.88183594 -8.5625 7.375 C-10.01849609 7.88160156 -10.01849609 7.88160156 -11.50390625 8.3984375 C-14 9 -14 9 -16 8 C-14.87811441 6.85111717 -13.75238316 5.70598863 -12.625 4.5625 C-11.99851562 3.92441406 -11.37203125 3.28632812 -10.7265625 2.62890625 C-7.34416948 -0.56217495 -4.51271288 -0.08356876 0 0 Z " fill="#F1F1F1" transform="translate(129,113)"/>
<path d="M0 0 C3.42320709 1.06336396 6.83708046 2.1541084 10.25 3.25 C11.21808594 3.55035156 12.18617187 3.85070312 13.18359375 4.16015625 C14.11816406 4.46308594 15.05273438 4.76601562 16.015625 5.078125 C16.87446289 5.35043945 17.73330078 5.62275391 18.61816406 5.90332031 C21.36885272 7.16983256 22.98926541 8.76132788 25 11 C18.66019028 9.97483928 13.01341932 8.3927398 7.12890625 5.8046875 C4.91161372 4.82321627 4.91161372 4.82321627 2 5 C2 4.01 2 3.02 2 2 C1.34 2 0.68 2 0 2 C0 1.34 0 0.68 0 0 Z " fill="#6E6E66" transform="translate(56,103)"/>
<path d="M0 0 C-2.22875119 3.34312678 -3.19286549 3.5423698 -6.9296875 4.45703125 C-9.99098963 5.25990105 -12.9249381 6.4017086 -15.88671875 7.51171875 C-18.28857804 8.066677 -19.68804525 7.77761006 -22 7 C-17.98871765 4.36201935 -13.84731661 2.73668091 -9.3125 1.25 C-8.63638672 1.01667969 -7.96027344 0.78335938 -7.26367188 0.54296875 C-2.24791729 -1.12395864 -2.24791729 -1.12395864 0 0 Z " fill="#7D7D76" transform="translate(144,105)"/>
<path d="M0 0 C0.66 0.33 1.32 0.66 2 1 C1.29875 1.66 0.5975 2.32 -0.125 3 C-3.49416695 6.34985941 -6.22468725 10.15652564 -9 14 C-9.66 13.67 -10.32 13.34 -11 13 C-9.52848475 8.14399966 -6.64952252 4.45450986 -3 1 C-2.01 0.67 -1.02 0.34 0 0 Z " fill="#575751" transform="translate(126,137)"/>
<path d="M0 0 C2.65354511 0.97296654 3.79877896 1.65792423 5.25 4.125 C6.22875273 7.87688545 6.13130728 11.1264351 6 15 C5.34 15 4.68 15 4 15 C3.87882812 14.25234375 3.75765625 13.5046875 3.6328125 12.734375 C3.46523437 11.74953125 3.29765625 10.7646875 3.125 9.75 C2.96257812 8.77546875 2.80015625 7.8009375 2.6328125 6.796875 C2.05144152 4.22735883 1.29159735 2.27928944 0 0 Z " fill="#92928C" transform="translate(104,185)"/>
<path d="M0 0 C7.48291572 6.15034169 7.48291572 6.15034169 10 10 C9.67 10.66 9.34 11.32 9 12 C5.09843342 8.96544821 2.20424008 6.53093795 0 2 C0 1.34 0 0.68 0 0 Z " fill="#8D8D89" transform="translate(74,135)"/>
<path d="M0 0 C2.31 1.98 4.62 3.96 7 6 C4.01316063 7.49341969 2.04839022 6.40648676 -1.125 5.5625 C-2.22070312 5.27503906 -3.31640625 4.98757812 -4.4453125 4.69140625 C-5.28835937 4.46324219 -6.13140625 4.23507813 -7 4 C-7 3.67 -7 3.34 -7 3 C-3.535 2.505 -3.535 2.505 0 2 C0 1.34 0 0.68 0 0 Z " fill="#D5D5D4" transform="translate(81,115)"/>
<path d="M0 0 C2.22825644 2.22825644 2.69239369 3.65761628 3.625 6.625 C3.88539062 7.44226563 4.14578125 8.25953125 4.4140625 9.1015625 C4.60742188 9.72804687 4.80078125 10.35453125 5 11 C1.50744532 7.86565605 -0.73200974 5.82382465 -1 1 C-0.67 0.67 -0.34 0.34 0 0 Z " fill="#D8D8D6" transform="translate(48,148)"/>
<path d="M0 0 C-2 3 -2 3 -5.5 3.8125 C-6.655 3.874375 -7.81 3.93625 -9 4 C-9.66 3.34 -10.32 2.68 -11 2 C-9.54494642 1.47007308 -8.08581873 0.9513211 -6.625 0.4375 C-5.81289062 0.14746094 -5.00078125 -0.14257812 -4.1640625 -0.44140625 C-2 -1 -2 -1 0 0 Z " fill="#54544C" transform="translate(144,105)"/>
<path d="M0 0 C3.3 0.99 6.6 1.98 10 3 C10 3.33 10 3.66 10 4 C9.21625 3.95875 8.4325 3.9175 7.625 3.875 C4.83883881 3.71271266 4.83883881 3.71271266 3 6 C0 2.25 0 2.25 0 0 Z " fill="#DFDFDE" transform="translate(59,107)"/>
<path d="M0 0 C1 2 2 4 3 6 C1.625 8 1.625 8 0 10 C-0.66 10 -1.32 10 -2 10 C-1.34 6.7 -0.68 3.4 0 0 Z " fill="#C7C7C4" transform="translate(150,149)"/>
<path d="M0 0 C0.99 0 1.98 0 3 0 C3 1.98 3 3.96 3 6 C2.01 6.33 1.02 6.66 0 7 C0 4.69 0 2.38 0 0 Z " fill="#171710" transform="translate(167,52)"/>
<path d="M0 0 C3.01327566 1.50663783 3.61056618 4.03166411 5 7 C4.34 7 3.68 7 3 7 C2.67 7.99 2.34 8.98 2 10 C0.68373308 6.38026598 0 3.90432869 0 0 Z " fill="#B6B6B2" transform="translate(42,134)"/>
<path d="M0 0 C0.66 0.33 1.32 0.66 2 1 C-2.455 3.97 -2.455 3.97 -7 7 C-4.92675939 2.85351878 -4.03205902 1.91522803 0 0 Z " fill="#8E8E8B" transform="translate(126,137)"/>
<path d="M0 0 C0.99 0 1.98 0 3 0 C3 2.64 3 5.28 3 8 C1.5 6.8125 1.5 6.8125 0 5 C-0.1875 2.3125 -0.1875 2.3125 0 0 Z " fill="#1A1A13" transform="translate(32,52)"/>
</svg>
